<svg width="629" height="187" viewBox="0 0 629 187" fill="none" xmlns="http://www.w3.org/2000/svg">
<path d="M625.589 49.6999H611.489V32.6999C611.489 31.7999 611.089 30.9999 610.389 30.3999C609.689 29.8999 608.889 29.6999 607.989 29.8999L595.589 32.8999C594.289 33.1999 593.389 34.3999 593.389 35.6999V49.5999H586.289C584.689 49.5999 583.489 50.8999 583.489 52.4999V62.7999C583.489 64.3999 584.789 65.6999 586.289 65.6999H593.389V107.1C593.589 124.7 604.789 127.1 616.989 127.1C618.189 127.1 619.389 127.1 620.589 127C621.789 127 623.089 126.9 624.389 126.9H624.489C626.189 126.7 627.189 125.5 627.189 123.9V112.9C627.189 111.3 625.889 110 624.389 110H620.089C613.889 110 611.389 107.3 611.389 100.6V65.6999H625.489C627.089 65.6999 628.289 64.3999 628.289 62.7999V52.5999C628.389 50.9999 627.089 49.6999 625.589 49.6999Z" fill="#FFFFE3"/>
<path d="M549.889 48.6001C542.489 48.6001 536.789 50.9001 532.689 55.4001V52.6001C532.689 51.0001 531.489 49.7001 529.889 49.7001H516.789C515.189 49.7001 513.989 50.9001 513.989 52.6001V124C513.989 125.6 515.189 126.9 516.789 126.9H529.889C531.489 126.9 532.689 125.7 532.689 124V79.3001C532.689 71.0001 537.689 65.5001 545.189 65.5001C552.689 65.5001 557.589 71.0001 557.589 79.5001V124.1C557.589 125.7 558.789 127 560.389 127H573.489C575.089 127 576.289 125.8 576.289 124.1V76.0001C576.289 59.3001 565.889 48.6001 549.889 48.6001Z" fill="#FFFFE3"/>
<path d="M483.989 80.7001H456.189C456.389 78.2001 456.689 76.5001 457.189 75.0001V74.9001C458.989 68.7001 463.389 65.4001 469.789 65.4001C476.689 65.4001 481.589 69.1001 483.189 75.8001C483.589 76.9001 483.889 78.6001 483.989 80.7001ZM469.789 48.6001C454.589 48.6001 443.089 57.2001 439.089 71.5001C437.789 75.8001 437.189 81.1001 437.289 87.8001C437.289 96.0001 438.389 102.6 440.589 108C445.589 120.7 456.389 127.9 471.189 128.2C471.389 128.2 471.589 128.2 471.689 128.2C483.989 128.2 494.489 123.1 500.689 114.2C501.589 112.9 501.289 111.5 500.089 110.4L491.289 102.9C490.489 102.2 489.689 102.1 489.189 102.2C488.689 102.3 487.889 102.6 487.189 103.6C483.689 108.7 478.889 111.3 472.789 111.3C464.589 111.2 459.289 107.8 457.189 101.3C456.589 99.9001 456.289 97.8001 456.089 95.5001H500.089C501.789 95.5001 502.889 94.3001 502.889 92.6001C502.989 87.6001 502.989 83.8001 502.489 79.7001C500.089 59.1001 489.089 48.6001 469.789 48.6001Z" fill="#FFFFE3"/>
<path d="M407.489 87.6C407.489 95.7 407.189 97.8 406.489 100.3C404.989 106.4 400.489 110 394.189 110C387.889 110 382.989 106.3 381.089 100.1C380.489 98.5 379.789 95.1 379.789 87.8C379.789 82 380.289 78.1 381.389 75.3C383.489 69 388.089 65.4 394.089 65.4C400.389 65.4 404.989 69.1 406.489 75.2C407.189 77.9 407.489 79.8 407.489 87.6ZM423.389 49.7H410.389C408.789 49.7 407.589 50.9 407.589 52.6V54.5C403.289 50.5 397.689 48.5 390.489 48.5C377.789 48.5 367.389 56.3 363.389 68.8C361.289 74.7 361.089 82 361.089 87.7C361.089 95.2 361.689 100.9 362.989 105.7C367.489 120.7 380.689 126.1 391.489 126.1C398.289 126.1 403.689 124.2 407.589 120.5C407.489 126.8 405.889 131.3 402.589 134.3C398.289 138.2 390.989 139.7 380.089 138.6C377.289 138.6 376.989 140.5 376.989 141.3L376.589 153.3C376.589 155 377.489 156.1 379.189 156.3C381.889 156.6 384.489 156.7 386.989 156.7C399.089 156.7 409.189 153.5 415.889 147.5C422.789 141.3 426.289 132.2 426.289 120.5V52.6C426.189 51 424.989 49.7 423.389 49.7Z" fill="#FFFFE3"/>
<path d="M354.689 50.0003C352.689 49.2003 350.489 48.8003 347.989 48.8003C341.289 48.8003 335.889 51.5003 331.789 56.9003V52.6003C331.789 51.0003 330.489 49.7003 328.989 49.7003H315.889C314.289 49.7003 313.089 51.0003 313.089 52.6003V124C313.089 125.6 314.389 126.9 315.889 126.9H328.989C330.589 126.9 331.789 125.6 331.789 124V82.5003C331.789 73.6003 338.289 69.2003 344.689 68.8003C346.989 68.5003 348.189 68.6003 349.689 68.9003C351.289 69.2003 352.789 68.2003 353.189 66.7003L356.689 54.0003C356.989 52.3003 356.189 50.6003 354.689 50.0003Z" fill="#FFFFE3"/>
<path d="M281.189 93.5001V100C281.189 107.7 273.189 112.4 265.389 112.4C260.189 112.4 254.589 110.1 254.589 103.7C254.589 97.2001 260.089 93.5001 269.689 93.5001H281.189ZM268.789 48.6001C254.389 48.6001 242.889 55.2001 239.489 65.4001C239.189 66.3001 239.289 67.2001 239.789 68.0001C240.189 68.7001 240.889 69.2001 241.789 69.4001L254.689 72.6001C255.989 72.8001 257.389 72.1001 257.889 70.9001C259.389 67.4001 263.389 65.4001 269.289 65.4001C277.089 65.4001 281.189 69.2001 281.189 76.3001V79.4001H266.389C247.189 79.4001 235.689 88.9001 235.689 104.7C235.689 121.8 248.889 127.9 261.189 127.9C269.489 127.9 276.289 125.4 281.089 120.8V123.9C281.089 125.5 282.389 126.8 283.889 126.8H296.989C298.589 126.8 299.789 125.5 299.789 123.9V74.6001C299.889 59.3001 287.089 48.6001 268.789 48.6001Z" fill="#FFFFE3"/>
<path d="M127.989 0H75.5888C73.7888 0 72.3888 1.5 72.3888 3.3C71.2888 54.1 45.5888 102.3 1.28884 136.4C-0.111158 137.5 -0.411162 139.5 0.588838 141L31.2888 184.7C32.2888 186.2 34.3888 186.5 35.7888 185.4C63.4888 164.2 85.7888 138.6 101.789 110.3C117.789 138.7 140.089 164.2 167.789 185.4C169.189 186.5 171.289 186.2 172.289 184.7L202.989 141C203.989 139.5 203.689 137.5 202.289 136.4C157.989 102.3 132.289 54.1 131.189 3.3C131.189 1.4 129.789 0 127.989 0Z" fill="#FFFFE3"/>
</svg>
